<svg width="32" height="32" viewBox="0 0 32 32" fill="none" xmlns="http://www.w3.org/2000/svg">
<path d="M0.962891 12.2598C3.03139 3.96044 11.4317 -1.10627 19.7236 0.962891H19.7256C28.0424 3.00671 33.102 11.4363 31.0391 19.7402C28.9708 28.0387 20.5663 33.1061 12.2529 31.0371C3.95397 28.9624 -1.10495 20.5574 0.962891 12.2598Z" fill="white" stroke="#EDEDED"/>
<path fill-rule="evenodd" clip-rule="evenodd" d="M10.3784 14.1163V25.7298H15.6003C20.8751 25.7298 25.1666 21.365 25.1666 15.9999C25.1666 10.6349 20.8751 6.27026 15.6003 6.27026H9.85312V8.54089H15.6003C19.6403 8.54089 22.9271 11.8871 22.9271 15.9999C22.9271 20.1128 19.6403 23.4592 15.6003 23.4592H12.6178V14.1163H10.3784Z" fill="#252B48"/>
<path fill-rule="evenodd" clip-rule="evenodd" d="M6.83334 22.5472V10.134H15.114C18.2266 10.134 20.759 12.7089 20.759 15.8738C20.759 19.039 18.2266 21.6139 15.114 21.6139H14.2155V19.3432H15.114C16.9918 19.3432 18.5197 17.7868 18.5197 15.8738C18.5197 13.961 16.9918 12.4047 15.114 12.4047H9.07265V22.5472H6.83334Z" fill="#FA9B00"/>
</svg>
