<svg width="32" height="32" viewBox="0 0 32 32" fill="none" xmlns="http://www.w3.org/2000/svg">
<g clip-path="url(#clip0_3142_9718)">
<circle cx="16" cy="16" r="16" fill="#F0F0F0"/>
<path d="M24.1635 7.83667V10.4633C24.1635 13.4867 21.735 15.9434 18.7206 15.9922L18.6291 15.993L16.0001 15.9931V18.6263C16.0001 21.737 13.5306 24.1631 10.4883 24.1631H7.83691V21.4585C7.83691 21.4464 7.83695 21.4344 7.83703 21.4223V15.5782C7.83703 11.3027 11.306 7.83667 15.5852 7.83667H24.1635Z" fill="white"/>
<path fill-rule="evenodd" clip-rule="evenodd" d="M20.6586 7.83667H24.1632V10.4631C24.1632 13.5737 21.6937 15.9999 18.6514 15.9999H18.5598H16V13.2975C16 10.5414 18.0182 8.25625 20.6586 7.83667Z" fill="#242265" fill-opacity="0.8"/>
<path d="M24.1635 7.83691V10.4635C24.1635 13.4869 21.735 15.9436 18.7206 15.9925L18.6291 15.9932L16.0001 15.9933V18.6265C16.0001 21.7372 13.5306 24.1634 10.4883 24.1634H7.83691V21.4588C7.83691 21.4467 7.83695 21.4346 7.83703 21.4225V15.5785C7.83703 11.3029 11.306 7.83691 15.5852 7.83691H24.1635Z" fill="#616EE1" fill-opacity="0.8"/>
</g>
<defs>
<clipPath id="clip0_3142_9718">
<rect width="32" height="32" fill="white"/>
</clipPath>
</defs>
</svg>
