<svg width="32" height="32" viewBox="0 0 32 32" fill="none" xmlns="http://www.w3.org/2000/svg">
<g clip-path="url(#clip0_3526_25710)">
<path d="M32 16C32 7.16344 24.8366 0 16 0C7.16344 0 0 7.16344 0 16C0 24.8366 7.16344 32 16 32C24.8366 32 32 24.8366 32 16Z" fill="#6936EC"/>
<path d="M15.9979 8.83887C11.0283 8.83887 7 12.92 7 17.9543V21.8606C7 22.5792 7.57487 23.1612 8.28452 23.1612C8.99415 23.1612 9.57324 22.5792 9.57324 21.8606V17.9543C9.57324 17.2336 10.146 16.6515 10.8577 16.6515C11.5674 16.6515 12.1423 17.2336 12.1423 17.9543V21.8606C12.1423 22.5792 12.7171 23.1612 13.4268 23.1612C14.1385 23.1612 14.7134 22.5792 14.7134 21.8606V17.9543C14.7134 17.2336 15.2883 16.6515 15.9979 16.6515C16.7097 16.6515 17.2866 17.2336 17.2866 17.9543V21.8606C17.2866 22.5792 17.8615 23.1612 18.5712 23.1612C19.2808 23.1612 19.8557 22.5792 19.8557 21.8606V17.9543C19.8557 17.2336 20.4306 16.6515 21.1443 16.6515C21.854 16.6515 22.4289 17.2336 22.4289 17.9543V21.8606C22.4289 22.5792 23.0037 23.1612 23.7156 23.1612C24.4251 23.1612 25 22.5792 25 21.8606V17.9543C25 12.92 20.9696 8.83887 15.9979 8.83887Z" fill="white"/>
</g>
<defs>
<clipPath id="clip0_3526_25710">
<rect width="32" height="32" fill="white"/>
</clipPath>
</defs>
</svg>
