<svg width="32" height="32" viewBox="0 0 32 32" fill="none" xmlns="http://www.w3.org/2000/svg">
<g clip-path="url(#clip0_3103_4364)">
<path d="M16 32C24.8366 32 32 24.8366 32 16C32 7.16344 24.8366 0 16 0C7.16344 0 0 7.16344 0 16C0 24.8366 7.16344 32 16 32Z" fill="#EBA337"/>
<path fill-rule="evenodd" clip-rule="evenodd" d="M13.9619 8.45331C14.4482 8.26513 14.9226 8.0815 15.3728 7.89619C15.8464 7.70125 16.3792 7.421 16.9528 7.11931C19.0194 6.03228 21.6152 4.66691 23.8762 6.01191C24.3464 6.29213 24.667 6.62263 24.8703 6.99063C25.442 7.6685 25.8911 8.64281 26.0425 9.80038C26.2564 11.4369 26.2564 12.2331 26.0425 13.3271C26.0296 13.3933 26.0121 13.4962 25.9892 13.6313C25.6334 15.7324 23.9585 25.6212 17.3815 26.0239C15.5766 26.2559 14.4964 26.0425 12.9728 25.5442C9.99312 24.5697 8.10119 22.4286 7.06144 20.548C5.11629 17.4158 5.65699 14.7353 7.19606 12.5688C8.6615 10.5046 11.4682 9.41838 13.9619 8.45331Z" fill="#2F4034"/>
<path d="M15.3728 7.89619C12.6138 9.03194 8.94725 10.102 7.19606 12.5688C5.61433 14.7954 5.08708 17.5648 7.22894 20.8095C9.18406 23.7725 14.3961 25.0362 18.2943 22.2374C21.8641 19.6738 22.1873 15.9104 23.2591 13.4107C24.3309 10.911 26.5851 7.6265 23.8762 6.01192C20.9876 4.2936 17.5527 6.999 15.3728 7.89619Z" fill="#8ABF51"/>
<path d="M23.2591 6.72758C21.947 5.97044 20.2737 6.30583 18.4239 7.21508C16.5742 8.1244 15.1464 8.80552 14.4981 9.03196C13.8481 9.25839 8.32667 11.281 7.2618 13.9639C6.38536 16.1697 6.61355 19.0584 8.91617 21.1674C11.2187 23.2764 17.0289 23.1467 19.2675 19.966C21.5062 16.7851 21.603 14.2232 22.0905 13.0875C22.578 11.9517 23.6394 10.2887 23.9402 9.38808C24.2963 8.31802 24.1027 7.21508 23.2591 6.72758Z" fill="#BADD55"/>
<path d="M13.5244 19.7385C15.5758 19.7385 17.2387 18.0755 17.2387 16.0242C17.2387 13.9728 15.5758 12.3099 13.5244 12.3099C11.4731 12.3099 9.81012 13.9728 9.81012 16.0242C9.81012 18.0755 11.4731 19.7385 13.5244 19.7385Z" fill="url(#paint0_radial_3103_4364)"/>
</g>
<defs>
<radialGradient id="paint0_radial_3103_4364" cx="0" cy="0" r="1" gradientUnits="userSpaceOnUse" gradientTransform="translate(13.5244 15.167) rotate(90) scale(4.57143)">
<stop stop-color="#895F51"/>
<stop offset="1" stop-color="#6D4D42"/>
</radialGradient>
<clipPath id="clip0_3103_4364">
<rect width="32" height="32" fill="white"/>
</clipPath>
</defs>
</svg>
