<svg width="33" height="32" viewBox="0 0 33 32" fill="none" xmlns="http://www.w3.org/2000/svg">
<path d="M0.962891 12.2598C3.03139 3.96044 11.4317 -1.10627 19.7236 0.962891H19.7256C28.0424 3.00671 33.102 11.4363 31.0391 19.7402C28.9707 28.0389 20.5656 33.1066 12.252 31.0371H12.2529C3.95397 28.9624 -1.10495 20.5574 0.962891 12.2598Z" fill="white" stroke="#EDEDED"/>
<path fill-rule="evenodd" clip-rule="evenodd" d="M4.66853 12.7986C4.24607 11.9758 4.93454 11.066 5.85946 11.066L9.11914 11.066C10.9754 10.9991 12.258 11.1997 12.9667 11.6677C13.5934 12.0814 14.2508 12.6363 14.939 13.3322C15.1297 13.5 15.1614 13.7224 15.0343 13.9992L14.3578 15.4773C14.2958 15.6126 14.223 15.7611 14.0777 15.7934C13.9881 15.8134 13.9011 15.77 13.8588 15.7489C13.8542 15.7466 13.8182 15.7192 13.8154 15.7149C12.8084 14.1799 11.4905 13.4124 9.86166 13.4124H5.84531C5.29062 13.4509 4.89835 13.2463 4.66853 12.7986ZM27.3315 12.7986C27.7539 11.9758 27.0655 11.066 26.1405 11.066L22.8809 11.066C21.0246 10.9991 19.742 11.1997 19.0333 11.6677C18.4066 12.0814 17.7492 12.6363 17.061 13.3322C16.8703 13.5 16.8386 13.7224 16.9657 13.9992L17.6422 15.4773C17.7042 15.6126 17.777 15.7611 17.9223 15.7934C18.0119 15.8134 18.0989 15.77 18.1412 15.7489C18.1458 15.7466 18.1818 15.7192 18.1846 15.7149C19.1916 14.1799 20.5095 13.4124 22.1383 13.4124H26.1547C26.7094 13.4509 27.1016 13.2463 27.3315 12.7986ZM7.60579 17.6649C7.11191 16.9001 7.66092 15.8921 8.57131 15.8921H9.66673C11.2564 15.8921 12.2715 17.3278 12.6258 17.8968C12.839 18.2391 13.1535 18.8719 13.5695 19.7951C13.61 19.8871 13.6533 19.9345 13.6995 19.9375C13.7564 19.9412 13.8176 19.8774 13.8832 19.7462C14.5683 18.3462 15.1597 17.1448 15.6573 16.1421C15.74 15.9753 15.8078 15.7253 15.9939 15.7253C16.1852 15.7253 16.2602 15.9779 16.3452 16.1492C16.8421 17.1505 17.4322 18.3495 18.1157 19.7462C18.1813 19.8774 18.2425 19.9412 18.2994 19.9375C18.3456 19.9345 18.389 19.8871 18.4294 19.7951C18.8454 18.8719 19.16 18.2391 19.3731 17.8968C19.7275 17.3278 20.7425 15.8921 22.3322 15.8921H23.4276C24.338 15.8921 24.887 16.9001 24.3931 17.6649C24.0848 18.1139 23.7031 18.3383 23.2483 18.3383C22.566 18.3383 21.2361 18.9705 20.7273 19.9875C20.3881 20.6654 19.7944 21.8977 18.9464 23.6843C18.823 24.0416 18.5956 24.2203 18.2641 24.2203C18.1771 24.2203 18.0933 24.1963 18.0127 24.1483C17.3457 23.7516 17.2298 22.8296 16.8742 22.1398L16.2174 20.866C16.1672 20.7639 16.094 20.7128 15.9976 20.7128C15.9012 20.7128 15.8292 20.7639 15.7815 20.866L15.1247 22.1399C14.7691 22.8296 14.6532 23.7516 13.9863 24.1483C13.9056 24.1963 13.8218 24.2203 13.7348 24.2203C13.4033 24.2203 13.1759 24.0416 13.0525 23.6843C12.2045 21.8977 11.6108 20.6654 11.2716 19.9875C10.7628 18.9705 9.43292 18.3383 8.75064 18.3383C8.29579 18.3383 7.91417 18.1139 7.60579 17.6649Z" fill="url(#paint0_linear_3629_7364)"/>
<defs>
<linearGradient id="paint0_linear_3629_7364" x1="25.9684" y1="22.2247" x2="3.12627" y2="16.0314" gradientUnits="userSpaceOnUse">
<stop offset="0.0884597" stop-color="#5B39F2"/>
<stop offset="0.523166" stop-color="#FF350B"/>
<stop offset="1" stop-color="#FFA100"/>
</linearGradient>
</defs>
</svg>
