<svg width="32" height="32" viewBox="0 0 32 32" fill="none" xmlns="http://www.w3.org/2000/svg">
<rect width="32" height="32" rx="16" fill="#A80A14"/>
<path d="M24.6277 21.6127L21.0212 18.7035L24.6277 16.1081V13.6139L19.3663 17.3648L17.6148 15.9477L24.6277 10.3281V8L23.488 8.85758L19.1184 12.1354L17.4431 13.4001L16.0522 14.4544L13.9936 16.0114L16.1659 17.6208L18.3223 19.2539L23.4608 23.1254L24.6277 24V21.6127ZM17.9037 21.5673L10.9455 15.9477L17.9618 10.3281V8L16.821 8.85758L12.4525 12.1354L10.7715 13.4001L9.38511 14.4544L8.67313 14.9991L7.37204 16.0114L8.5958 16.9315L9.49545 17.6208L11.6586 19.2539L16.7949 23.1254L17.9037 23.9545V21.5673Z" fill="#FFFCF9"/>
</svg>
