<svg width="32" height="32" viewBox="0 0 32 32" fill="none" xmlns="http://www.w3.org/2000/svg">
<rect width="32" height="32" rx="16" fill="url(#paint0_linear_3526_25507)"/>
<path fill-rule="evenodd" clip-rule="evenodd" d="M4.66853 11.1617C4.4387 10.714 4.21586 10.1365 4 9.42904L9.11914 9.42905C10.9754 9.36217 12.258 9.56272 12.9667 10.0307C13.5934 10.4444 14.2508 10.9993 14.939 11.6952C15.1297 11.8631 15.1614 12.0854 15.0343 12.3623L14.2647 14.0437C14.2256 14.0998 14.1633 14.1374 14.0777 14.1565C13.9881 14.1764 13.9011 14.133 13.8588 14.112C13.8405 14.1028 13.8306 14.0979 13.8324 14.104C12.8233 12.5517 11.4997 11.7755 9.86166 11.7755H5.84531C5.29062 11.8139 4.89835 11.6093 4.66853 11.1617ZM27.3315 11.1617C27.5613 10.714 27.7841 10.1365 28 9.42904L22.8809 9.42905C21.0246 9.36217 19.742 9.56272 19.0333 10.0307C18.4066 10.4444 17.7492 10.9993 17.061 11.6952C16.8703 11.8631 16.8386 12.0854 16.9657 12.3623L17.7353 14.0437C17.7744 14.0998 17.8367 14.1374 17.9223 14.1565C18.0119 14.1764 18.0989 14.133 18.1412 14.112C18.1595 14.1028 18.1694 14.0979 18.1676 14.104C19.1767 12.5517 20.5003 11.7755 22.1383 11.7755H26.1547C26.7094 11.8139 27.1016 11.6093 27.3315 11.1617ZM7.60579 16.028L6.46094 14.2551H9.66673C11.2564 14.2551 12.2715 15.6908 12.6258 16.2598C12.839 16.6022 13.1535 17.235 13.5695 18.1581C13.61 18.2501 13.6533 18.2976 13.6995 18.3006C13.7564 18.3042 13.8176 18.2404 13.8832 18.1092C14.6263 16.5908 15.259 15.306 15.7815 14.2549C15.8579 14.1439 15.9287 14.0884 15.9939 14.0884C16.0591 14.0884 16.1336 14.1439 16.2174 14.2549C16.7399 15.306 17.3727 16.5908 18.1157 18.1092C18.1813 18.2404 18.2425 18.3042 18.2994 18.3006C18.3456 18.2976 18.389 18.2501 18.4294 18.1581C18.8454 17.235 19.16 16.6022 19.3731 16.2598C19.7275 15.6908 20.7425 14.2551 22.3322 14.2551H25.538L24.3931 16.028C24.0848 16.4769 23.7031 16.7014 23.2483 16.7014C22.566 16.7014 21.2361 17.3335 20.7273 18.3505C20.3881 19.0285 19.7944 20.2607 18.9464 22.0473C18.823 22.4046 18.5956 22.5833 18.2641 22.5833C17.9326 22.5833 17.6474 22.2351 17.4084 21.5388L16.2174 19.2291C16.1672 19.1269 16.094 19.0758 15.9976 19.0758C15.9012 19.0758 15.8292 19.1269 15.7815 19.2291L14.5906 21.5388C14.3516 22.2351 14.0663 22.5833 13.7348 22.5833C13.4033 22.5833 13.1759 22.4046 13.0525 22.0473C12.2045 20.2607 11.6108 19.0285 11.2716 18.3505C10.7628 17.3335 9.43292 16.7014 8.75064 16.7014C8.29579 16.7014 7.91417 16.4769 7.60579 16.028Z" fill="url(#paint1_linear_3526_25507)"/>
<path fill-rule="evenodd" clip-rule="evenodd" d="M4.66853 11.1617C4.4387 10.714 4.21586 10.1365 4 9.42904L9.11914 9.42905C10.9754 9.36217 12.258 9.56272 12.9667 10.0307C13.5934 10.4444 14.2508 10.9993 14.939 11.6952C15.1297 11.8631 15.1614 12.0854 15.0343 12.3623L14.2647 14.0437C14.2256 14.0998 14.1633 14.1374 14.0777 14.1565C13.9881 14.1764 13.9011 14.133 13.8588 14.112C13.8405 14.1028 13.8306 14.0979 13.8324 14.104C12.8233 12.5517 11.4997 11.7755 9.86166 11.7755H5.84531C5.29062 11.8139 4.89835 11.6093 4.66853 11.1617ZM27.3315 11.1617C27.5613 10.714 27.7841 10.1365 28 9.42904L22.8809 9.42905C21.0246 9.36217 19.742 9.56272 19.0333 10.0307C18.4066 10.4444 17.7492 10.9993 17.061 11.6952C16.8703 11.8631 16.8386 12.0854 16.9657 12.3623L17.7353 14.0437C17.7744 14.0998 17.8367 14.1374 17.9223 14.1565C18.0119 14.1764 18.0989 14.133 18.1412 14.112C18.1595 14.1028 18.1694 14.0979 18.1676 14.104C19.1767 12.5517 20.5003 11.7755 22.1383 11.7755H26.1547C26.7094 11.8139 27.1016 11.6093 27.3315 11.1617ZM7.60579 16.028L6.46094 14.2551H9.66673C11.2564 14.2551 12.2715 15.6908 12.6258 16.2598C12.839 16.6022 13.1535 17.235 13.5695 18.1581C13.61 18.2501 13.6533 18.2976 13.6995 18.3006C13.7564 18.3042 13.8176 18.2404 13.8832 18.1092C14.6263 16.5908 15.259 15.306 15.7815 14.2549C15.8579 14.1439 15.9287 14.0884 15.9939 14.0884C16.0591 14.0884 16.1336 14.1439 16.2174 14.2549C16.7399 15.306 17.3727 16.5908 18.1157 18.1092C18.1813 18.2404 18.2425 18.3042 18.2994 18.3006C18.3456 18.2976 18.389 18.2501 18.4294 18.1581C18.8454 17.235 19.16 16.6022 19.3731 16.2598C19.7275 15.6908 20.7425 14.2551 22.3322 14.2551H25.538L24.3931 16.028C24.0848 16.4769 23.7031 16.7014 23.2483 16.7014C22.566 16.7014 21.2361 17.3335 20.7273 18.3505C20.3881 19.0285 19.7944 20.2607 18.9464 22.0473C18.823 22.4046 18.5956 22.5833 18.2641 22.5833C17.9326 22.5833 17.6474 22.2351 17.4084 21.5388L16.2174 19.2291C16.1672 19.1269 16.094 19.0758 15.9976 19.0758C15.9012 19.0758 15.8292 19.1269 15.7815 19.2291L14.5906 21.5388C14.3516 22.2351 14.0663 22.5833 13.7348 22.5833C13.4033 22.5833 13.1759 22.4046 13.0525 22.0473C12.2045 20.2607 11.6108 19.0285 11.2716 18.3505C10.7628 17.3335 9.43292 16.7014 8.75064 16.7014C8.29579 16.7014 7.91417 16.4769 7.60579 16.028Z" fill="white"/>
<defs>
<linearGradient id="paint0_linear_3526_25507" x1="29.2912" y1="27.15" x2="-2.69616" y2="22.392" gradientUnits="userSpaceOnUse">
<stop offset="0.0884597" stop-color="#5B39F2"/>
<stop offset="0.523166" stop-color="#FF350B"/>
<stop offset="1" stop-color="#FFA100"/>
</linearGradient>
<linearGradient id="paint1_linear_3526_25507" x1="25.9684" y1="20.5877" x2="3.12627" y2="14.3945" gradientUnits="userSpaceOnUse">
<stop offset="0.0884597" stop-color="#5B39F2"/>
<stop offset="0.523166" stop-color="#FF350B"/>
<stop offset="1" stop-color="#FFA100"/>
</linearGradient>
</defs>
</svg>
