<svg width="32" height="32" viewBox="0 0 32 32" fill="none" xmlns="http://www.w3.org/2000/svg">
<g clip-path="url(#clip0_5630_1738)">
<circle cx="16" cy="16" r="16" fill="#101113"/>
<path d="M20.1515 8.25731C20.4946 7.91423 21.0508 7.91423 21.3939 8.25731L23.7427 10.6061C24.0858 10.9492 24.0858 11.5054 23.7427 11.8485L11.8485 23.7427C11.5054 24.0858 10.9492 24.0858 10.6061 23.7427L8.25731 21.3939C7.91423 21.0508 7.91423 20.4946 8.25731 20.1515L20.1515 8.25731Z" fill="#ABE127"/>
<path d="M16.67 13.0788C16.327 12.7358 15.7707 12.7358 15.4277 13.0788L13.0788 15.4277C12.7358 15.7707 12.7358 16.327 13.0788 16.67L20.1515 23.7427C20.4946 24.0858 21.0508 24.0858 21.3939 23.7427L23.7427 21.3939C24.0858 21.0508 24.0858 20.4946 23.7427 20.1515L16.67 13.0788Z" fill="#ABE127"/>
<path d="M11.8485 8.25731C11.5054 7.91423 10.9492 7.91423 10.6061 8.25731L8.25731 10.6061C7.91423 10.9492 7.91423 11.5054 8.25731 11.8485L10.6059 14.1971C10.949 14.5401 11.5052 14.5401 11.8483 14.1971L14.1971 11.8483C14.5401 11.5052 14.5401 10.949 14.1971 10.6059L11.8485 8.25731Z" fill="#ABE127"/>
</g>
<defs>
<clipPath id="clip0_5630_1738">
<rect width="32" height="32" fill="white"/>
</clipPath>
</defs>
</svg>
