<svg width="32" height="32" viewBox="0 0 32 32" fill="none" xmlns="http://www.w3.org/2000/svg">
<g clip-path="url(#clip0_3526_25530)">
<path d="M16 32C24.8366 32 32 24.8366 32 16C32 7.16344 24.8366 0 16 0C7.16344 0 0 7.16344 0 16C0 24.8366 7.16344 32 16 32Z" fill="url(#paint0_radial_3526_25530)"/>
<path d="M24.1665 26.3692C23.8905 26.6008 23.4789 26.5651 23.2479 26.2891L17.5723 19.5252C17.5646 19.517 17.558 19.5088 17.5514 19.5005C17.4318 19.3694 17.26 19.2871 17.0685 19.2871C16.877 19.2871 16.7052 19.3694 16.5855 19.5005C16.5768 19.5115 16.568 19.5214 16.5587 19.5324L11.0565 26.0899C10.3617 26.9169 9.12803 27.025 8.2999 26.3308C7.47232 25.636 7.36421 24.4023 8.05898 23.5742L21.4731 7.58683C21.7047 7.31024 21.6684 6.89974 21.393 6.66815C21.1175 6.43656 20.7059 6.47278 20.4743 6.74828L16.073 11.9799C15.7146 12.4151 15.1713 12.6922 14.5633 12.6922C13.9552 12.6922 13.4124 12.4151 13.0535 11.9799L8.66814 6.8059C8.43655 6.52986 8.47277 6.11881 8.74881 5.88722C9.02485 5.65563 9.4359 5.69131 9.66749 5.96735L14.0589 11.1496C14.0666 11.1578 14.0737 11.166 14.0809 11.1748C14.2005 11.306 14.3723 11.3883 14.5638 11.3883C14.7553 11.3883 14.9271 11.306 15.0467 11.1748C15.0544 11.166 15.0616 11.1578 15.0687 11.149L19.4755 5.91082C20.1697 5.08379 21.4039 4.97568 22.2321 5.6699C23.0591 6.36467 23.1672 7.59835 22.473 8.42648L9.05888 24.4139C8.82674 24.6894 8.86241 25.1009 9.13845 25.3325C9.41504 25.5641 9.82664 25.5279 10.0577 25.2524L15.5577 18.6977C15.5577 18.6977 15.5615 18.6927 15.5637 18.69C15.9221 18.2581 16.4637 17.9831 17.069 17.9831C17.6743 17.9831 18.2138 18.2575 18.5727 18.6878C18.576 18.6916 18.5788 18.6955 18.582 18.6987L24.2472 25.4505C24.4788 25.7266 24.4426 26.1376 24.1671 26.3692H24.1665Z" fill="white"/>
</g>
<defs>
<radialGradient id="paint0_radial_3526_25530" cx="0" cy="0" r="1" gradientUnits="userSpaceOnUse" gradientTransform="translate(16 16) scale(16)">
<stop stop-color="#4599D8"/>
<stop offset="0.48" stop-color="#4397D7"/>
<stop offset="0.66" stop-color="#3C93D5"/>
<stop offset="0.78" stop-color="#308AD2"/>
<stop offset="0.88" stop-color="#1F7FCE"/>
<stop offset="0.97" stop-color="#0970C9"/>
<stop offset="1" stop-color="#006AC7"/>
</radialGradient>
<clipPath id="clip0_3526_25530">
<rect width="32" height="32" fill="white"/>
</clipPath>
</defs>
</svg>
